<?xml version="1.0" encoding="UTF-8" standalone="no"?>
<svg
   xmlns:dc="http://purl.org/dc/elements/1.1/"
   xmlns:cc="http://creativecommons.org/ns#"
   xmlns:rdf="http://www.w3.org/1999/02/22-rdf-syntax-ns#"
   xmlns:svg="http://www.w3.org/2000/svg"
   xmlns="http://www.w3.org/2000/svg"
   id="svg5409"
   version="1.1"
   viewBox="0 0 5.5562501 5.5562501"
   height="5.5562501mm"
   width="5.5562501mm">
  <defs
     id="defs5403" />
  <metadata
     id="metadata5406">
    <rdf:RDF>
      <cc:Work
         rdf:about="">
        <dc:format>image/svg+xml</dc:format>
        <dc:type
           rdf:resource="http://purl.org/dc/dcmitype/StillImage" />
        <dc:title></dc:title>
      </cc:Work>
    </rdf:RDF>
  </metadata>
  <g
     transform="translate(-100.07865,-148.93728)"
     id="layer1">
    <path
       id="path197"
       d="m 102.4599,153.3029 v -1.19062 h -1.19062 c -0.88195,0 -1.19063,-0.10289 -1.19063,-0.39688 0,-0.29398 0.30868,-0.39687 1.19063,-0.39687 h 1.19062 v -1.19063 c 0,-0.88194 0.1029,-1.19062 0.39688,-1.19062 0.29398,0 0.39687,0.30868 0.39687,1.19062 v 1.19063 h 1.19063 c 0.88194,0 1.19062,0.10289 1.19062,0.39687 0,0.29399 -0.30868,0.39688 -1.19062,0.39688 h -1.19063 v 1.19062 c 0,0.88195 -0.10289,1.19063 -0.39687,1.19063 -0.29398,0 -0.39688,-0.30868 -0.39688,-1.19063 z"
       style="fill:#000000;stroke-width:0.26458332" />
  </g>
</svg>
