<?xml version="1.0" encoding="UTF-8" standalone="no"?>
<svg
   xmlns:dc="http://purl.org/dc/elements/1.1/"
   xmlns:cc="http://creativecommons.org/ns#"
   xmlns:rdf="http://www.w3.org/1999/02/22-rdf-syntax-ns#"
   xmlns:svg="http://www.w3.org/2000/svg"
   xmlns="http://www.w3.org/2000/svg"
   id="svg5409"
   version="1.1"
   viewBox="0 0 4.0619979 5.0614147"
   height="5.0614147mm"
   width="4.0619979mm">
  <defs
     id="defs5403" />
  <metadata
     id="metadata5406">
    <rdf:RDF>
      <cc:Work
         rdf:about="">
        <dc:format>image/svg+xml</dc:format>
        <dc:type
           rdf:resource="http://purl.org/dc/dcmitype/StillImage" />
        <dc:title></dc:title>
      </cc:Work>
    </rdf:RDF>
  </metadata>
  <g
     transform="translate(-100.63678,-148.09801)"
     id="layer1">
    <path
       id="path5361"
       d="m 100.63678,152.87037 c 0,-0.15324 0.29765,-0.71666 0.66146,-1.25204 0.79777,-1.17404 0.80251,-1.24926 0.13229,-2.10131 -0.29104,-0.37 -0.52917,-0.83526 -0.52917,-1.03392 0,-0.64491 0.78902,-0.38177 1.28099,0.42722 l 0.47947,0.78842 0.5829,-0.78842 c 0.53247,-0.7202 1.36081,-1.07645 1.36081,-0.58525 0,0.11174 -0.30266,0.64857 -0.67258,1.19295 l -0.67257,0.98978 0.81944,1.19101 c 0.72226,1.04977 0.76614,1.21147 0.37002,1.36348 -0.31264,0.11997 -0.66616,-0.0931 -1.16158,-0.70013 l -0.71216,-0.87258 -0.59081,0.82971 c -0.57169,0.80287 -1.34851,1.12032 -1.34851,0.55108 z"
       style="fill:#000000;stroke-width:0.26458332" />
  </g>
</svg>
