<?xml version="1.0" encoding="UTF-8" standalone="no"?>
<svg
   xmlns:dc="http://purl.org/dc/elements/1.1/"
   xmlns:cc="http://creativecommons.org/ns#"
   xmlns:rdf="http://www.w3.org/1999/02/22-rdf-syntax-ns#"
   xmlns:svg="http://www.w3.org/2000/svg"
   xmlns="http://www.w3.org/2000/svg"
   id="svg5409"
   version="1.1"
   viewBox="0 0 6.4019723 6.4525681"
   height="6.4525681mm"
   width="6.4019723mm">
  <defs
     id="defs5403" />
  <metadata
     id="metadata5406">
    <rdf:RDF>
      <cc:Work
         rdf:about="">
        <dc:format>image/svg+xml</dc:format>
        <dc:type
           rdf:resource="http://purl.org/dc/dcmitype/StillImage" />
        <dc:title></dc:title>
      </cc:Work>
    </rdf:RDF>
  </metadata>
  <g
     transform="translate(-97.328865,-150.13263)"
     id="layer1">
    <path
       id="path5363"
       d="m 99.844262,156.53646 c -0.3052,-0.0595 -0.9453,-0.43419 -1.4225,-0.83258 -0.7205,-0.60143 -0.8897,-0.95331 -0.9973,-2.07384 -0.1199,-1.24771 -0.062,-1.42228 0.761,-2.31444 1.1064,-1.19864 2.376698,-1.4725 3.767998,-0.8123 0.7747,0.36766 1.0397,0.3928 1.3577,0.12885 0.3418,-0.28361 0.3952,-0.14473 0.3952,1.02737 v 1.35531 h -1.1906 c -1.2978,0 -1.4066,-0.11658 -0.7679,-0.82239 0.5247,-0.57977 0.3322,-0.92484 -0.6172,-1.10633 -1.0827,-0.20697 -2.306098,0.41004 -2.700398,1.36188 -1.0295,2.48553 2.006698,4.38642 3.863698,2.41893 0.87,-0.92176 1.1478,-0.99149 1.1478,-0.28811 0,0.54709 -1.4046,1.87561 -1.983,1.87561 -0.1952,0 -0.5135,0.0428 -0.7073,0.0951 -0.1938,0.0523 -0.6021,0.0464 -0.907198,-0.0131 z"
       style="fill:#000000;stroke-width:0.26458332" />
    <rect
       style="fill:none;stroke-width:0.26458332"
       y="150.13263"
       x="97.328865"
       height="6.4492145"
       width="6.4019723"
       id="rect27" />
  </g>
</svg>
